# File created by Blade
# Date/Time:  Thu Sep 25 17:54:10 2014
# Frame Rate: 120.000 fps
#------------------------------------------------------
:FULLY-SPECIFIED
:DEGREES
2115
root 0.463309 32.532836 -6.802742 28.128370 -0.913819 -0.666255
Spine -31.697268 -3.864231 5.239792
Head -12.604943 -3.674860 -13.419966
LeftShoulder -0.834098 -40.392788 57.914097
LeftArm 73.069536 14.516491 -91.328526
LeftForeArm -20.583150 -0.000000 86.252769
LeftHand -13.491377 -0.000000 1.225004
LeftHandThumb1 -26.253704 0.000000 33.147579
RightShoulder 11.884767 0.593105 -44.879324
RightArm 93.424391 -22.571169 90.721841
RightForeArm 75.335386 -0.000000 90.612764
RightHand 19.571427 -0.000000 -5.056935
RightHandThumb1 -24.326973 -0.000000 -32.862282
LeftUpLeg -23.017973 5.714060 -1.293108
LeftLeg -1.136143 -0.000000 0.000000
LeftFoot -5.407439 -1.323288 -1.142571
LeftToeBase 3.789745 -0.000000 -0.000000
RightUpLeg -23.603241 -7.466675 4.181202
RightLeg -1.341438 -0.000000 0.000000
RightFoot -6.687996 0.894398 11.646248
RightToeBase 15.644829 -0.000000 -0.000000
2116
root 0.470317 32.531861 -6.782243 28.062403 -0.847603 -0.650302
Spine -31.704432 -4.050158 5.328323
Head -12.592490 -3.660229 -13.237070
LeftShoulder -1.026226 -40.925488 58.045709
LeftArm 72.650652 14.587203 -91.291825
LeftForeArm -20.518188 -0.000000 86.052813
LeftHand -13.393847 -0.000000 1.030352
LeftHandThumb1 -26.253704 0.000000 33.147579
RightShoulder 11.682756 0.870780 -45.061165
RightArm 93.174827 -22.467160 91.141052
RightForeArm 74.595671 -0.000000 92.017253
RightHand 19.413038 -0.000000 -4.588188
RightHandThumb1 -24.326973 -0.000000 -32.862282
LeftUpLeg -22.911452 5.696921 -1.308026
LeftLeg -1.169115 -0.000000 0.000000
LeftFoot -5.328982 -1.316001 -0.936308
LeftToeBase 3.495299 -0.000000 -0.000000
RightUpLeg -23.496827 -7.514129 4.158879
RightLeg -1.336882 -0.000000 0.000000
RightFoot -6.741829 0.870377 11.620177
RightToeBase 15.613440 -0.000000 -0.000000
2117
root 0.476718 32.531592 -6.762215 28.014050 -0.776746 -0.656220
Spine -31.741469 -4.214905 5.411794
Head -12.522969 -3.650748 -13.003945
LeftShoulder -1.115722 -41.230797 58.078678
LeftArm 72.588347 14.688692 -91.200326
LeftForeArm -20.415226 -0.000000 85.673199
LeftHand -13.398361 -0.000000 0.849806
LeftHandThumb1 -26.253704 0.000000 33.147579
RightShoulder 11.544424 1.025007 -45.211245
RightArm 92.896097 -22.321869 91.579621
RightForeArm 73.718428 0.000000 93.406624
RightHand 19.487024 0.000000 -4.388491
RightHandThumb1 -24.326973 -0.000000 -32.862282
LeftUpLeg -22.823903 5.673086 -1.284629
LeftLeg -1.181951 -0.000000 0.000000
LeftFoot -5.416456 -1.406020 -1.117545
LeftToeBase 3.783363 -0.000000 -0.000000
RightUpLeg -23.409116 -7.516767 4.143513
RightLeg -1.328646 -0.000000 0.000000
RightFoot -6.783589 0.808801 11.641329
RightToeBase 15.616692 -0.000000 -0.000000
2118
root 0.481845 32.531184 -6.740319 27.928996 -0.689646 -0.650557
Spine -31.747315 -4.397109 5.487450
Head -12.443424 -3.659127 -12.791478
LeftShoulder -1.101330 -41.137332 57.964393
LeftArm 73.058969 14.788907 -90.943759
LeftForeArm -20.228867 -0.000000 85.165038
LeftHand -13.515834 -0.000000 0.548664
LeftHandThumb1 -26.253704 0.000000 33.147579
RightShoulder 11.388855 0.951384 -45.196503
RightArm 92.844332 -22.245592 91.800650
RightForeArm 72.586495 -0.000000 94.565116
RightHand 19.705969 0.000000 -4.106798
RightHandThumb1 -24.326973 -0.000000 -32.862282
LeftUpLeg -22.700969 5.635876 -1.264703
LeftLeg -1.196089 -0.000000 0.000000
LeftFoot -5.444938 -1.457636 -1.167841
LeftToeBase 3.842279 -0.000000 -0.000000
RightUpLeg -23.266317 -7.518168 4.113188
RightLeg -1.338915 -0.000000 0.000000
RightFoot -6.835637 0.725222 11.637696
RightToeBase 15.606299 -0.000000 -0.000000
2119
root 0.487693 32.530752 -6.719315 27.837328 -0.607762 -0.648073
Spine -31.754759 -4.611723 5.579346
Head -12.338824 -3.644593 -12.559338
LeftShoulder -1.151316 -40.856296 57.883451
LeftArm 73.720159 14.891097 -90.699848
LeftForeArm -20.027312 -0.000000 84.489858
LeftHand -13.415926 -0.000000 -0.019379
LeftHandThumb1 -26.253704 0.000000 33.147579
RightShoulder 11.361107 0.965114 -45.233554
RightArm 92.558606 -22.108963 92.187597
RightForeArm 71.229803 0.000000 95.775320
RightHand 19.696030 -0.000000 -3.931688
RightHandThumb1 -24.326973 -0.000000 -32.862282
LeftUpLeg -22.584981 5.608902 -1.245563
LeftLeg -1.183836 -0.000000 0.000000
LeftFoot -5.464775 -1.513226 -1.175152
LeftToeBase 3.804649 -0.000000 -0.000000
RightUpLeg -23.147382 -7.568089 4.105927
RightLeg -1.305171 -0.000000 0.000000
RightFoot -6.887449 0.698544 11.640953
RightToeBase 15.598309 -0.000000 -0.000000
2120
root 0.494478 32.530146 -6.696617 27.775138 -0.522968 -0.647604
Spine -31.798301 -4.767097 5.632084
Head -12.202433 -3.682265 -12.312709
LeftShoulder -1.270630 -40.934697 57.923577
LeftArm 74.060366 15.050163 -90.698957
LeftForeArm -19.794923 -0.000000 83.809956
LeftHand -13.454395 -0.000000 -0.378084
LeftHandThumb1 -26.253704 0.000000 33.147579
RightShoulder 11.323745 0.840843 -45.258255
RightArm 92.246766 -21.911263 92.588181
RightForeArm 69.814422 -0.000000 97.088819
RightHand 19.193833 -0.000000 -4.213800
RightHandThumb1 -24.326973 -0.000000 -32.862282
LeftUpLeg -22.488035 5.574331 -1.230374
LeftLeg -1.190395 -0.000000 0.000000
LeftFoot -5.478440 -1.543670 -1.129919
LeftToeBase 3.788975 -0.000000 -0.000000
RightUpLeg -23.055357 -7.633737 4.110025
RightLeg -1.269010 -0.000000 0.000000
RightFoot -6.926800 0.693991 11.651080
RightToeBase 15.515250 -0.000000 -0.000000
2121
root 0.499933 32.528855 -6.674270 27.705100 -0.453205 -0.632733
Spine -31.828957 -4.910807 5.640975
Head -12.050305 -3.700499 -12.054284
LeftShoulder -1.330072 -40.874929 57.955733
LeftArm 74.500268 15.154210 -90.703963
LeftForeArm -19.620495 -0.000000 83.233212
LeftHand -13.606361 -0.000000 -0.889786
LeftHandThumb1 -26.253704 0.000000 33.147579
RightShoulder 11.317069 0.708880 -45.357404
RightArm 91.845229 -21.680923 93.043030
RightForeArm 68.735091 0.000000 98.471585
RightHand 18.660513 -0.000000 -5.024433
RightHandThumb1 -24.326973 -0.000000 -32.862282
LeftUpLeg -22.387010 5.555269 -1.233467
LeftLeg -1.185183 -0.000000 0.000000
LeftFoot -5.521803 -1.592381 -1.161329
LeftToeBase 3.876458 -0.000000 -0.000000
RightUpLeg -22.943605 -7.646171 4.082321
RightLeg -1.256395 -0.000000 0.000000
RightFoot -6.995629 0.615871 11.610180
RightToeBase 15.491798 -0.000000 -0.000000
2122
root 0.503548 32.528419 -6.655973 27.665638 -0.382613 -0.631623
Spine -31.893405 -5.030603 5.654157
Head -11.863115 -3.738297 -11.824106
LeftShoulder -1.375691 -40.992701 58.026199
LeftArm 74.745225 15.251997 -90.846874
LeftForeArm -19.526573 -0.000000 82.670928
LeftHand -13.817533 -0.000000 -1.381542
LeftHandThumb1 -26.253704 0.000000 33.147579
RightShoulder 11.274690 0.362379 -45.329617
RightArm 91.718361 -21.432965 93.225463
RightForeArm 67.847933 0.000000 99.584717
RightHand 18.406085 0.000000 -4.801158
RightHandThumb1 -24.326973 -0.000000 -32.862282
LeftUpLeg -22.342779 5.558303 -1.229411
LeftLeg -1.145345 -0.000000 0.000000
LeftFoot -5.560586 -1.670006 -1.155093
LeftToeBase 3.845160 -0.000000 -0.000000
RightUpLeg -22.869102 -7.594114 4.037375
RightLeg -1.234089 -0.000000 0.000000
RightFoot -7.022410 0.540980 11.763461
RightToeBase 15.392032 -0.000000 -0.000000
2123
root 0.508234 32.527111 -6.633748 27.567326 -0.285303 -0.612063
Spine -31.919407 -5.221555 5.691762
Head -11.655371 -3.751513 -11.631997
LeftShoulder -1.421327 -41.018885 58.111230
LeftArm 74.966786 15.331676 -91.023412
LeftForeArm -19.485299 -0.000000 82.230506
LeftHand -14.044901 0.000000 -1.889616
LeftHandThumb1 -26.253704 0.000000 33.147579
RightShoulder 11.226687 -0.118530 -45.144490
RightArm 91.816169 -21.204260 93.181563
RightForeArm 67.369808 -0.000000 100.440233
RightHand 17.660714 -0.000000 -5.149278
RightHandThumb1 -24.326973 -0.000000 -32.862282
LeftUpLeg -22.230403 5.524697 -1.228416
LeftLeg -1.116197 -0.000000 0.000000
LeftFoot -5.578102 -1.702839 -1.106143
LeftToeBase 3.762765 -0.000000 -0.000000
RightUpLeg -22.733514 -7.694464 4.047296
RightLeg -1.212651 -0.000000 0.000000
RightFoot -7.133818 0.476474 11.587135
RightToeBase 15.504626 -0.000000 -0.000000
2124
root 0.511412 32.526059 -6.611763 27.493031 -0.198537 -0.608593
Spine -31.963381 -5.371281 5.718239
Head -11.454840 -3.776221 -11.449057
LeftShoulder -1.459473 -41.104960 58.177339
LeftArm 75.170772 15.455874 -91.209595
LeftForeArm -19.508916 -0.000000 81.829406
LeftHand -14.440887 -0.000000 -2.161888
LeftHandThumb1 -26.253704 0.000000 33.147579
RightShoulder 11.183408 -0.365861 -45.149324
RightArm 91.485829 -20.925355 93.439304
RightForeArm 67.257469 -0.000000 101.397647
RightHand 17.222679 -0.000000 -5.370876
RightHandThumb1 -24.326973 -0.000000 -32.862282
LeftUpLeg -22.130389 5.465104 -1.195088
LeftLeg -1.097386 -0.000000 0.000000
LeftFoot -5.612537 -1.690285 -1.133721
LeftToeBase 3.878221 -0.000000 -0.000000
RightUpLeg -22.604892 -7.671138 4.005872
RightLeg -1.216471 -0.000000 0.000000
RightFoot -7.148560 0.422848 11.758842
RightToeBase 15.360313 -0.000000 -0.000000
